<svg xmlns="http://www.w3.org/2000/svg" width="256" height="256" viewBox="0 0 256 256">
  <defs>
    <linearGradient id="bg" x1="0" y1="0" x2="1" y2="1">
      <stop offset="0" stop-color="#142036"/>
      <stop offset="1" stop-color="#1b3756"/>
    </linearGradient>
    <linearGradient id="fg" x1="0" y1="0" x2="1" y2="1">
      <stop offset="0" stop-color="#67ecf2"/>
      <stop offset="1" stop-color="#35b6e8"/>
    </linearGradient>
  </defs>

  <rect x="8" y="8" width="240" height="240" rx="52" fill="url(#bg)"/>

  <path d="M46 166c14-12 28-12 42 0s28 12 42 0 28-12 42 0 28 12 42 0" 
        fill="none" stroke="#8fb8d9" stroke-opacity="0.45" stroke-width="10" stroke-linecap="round"/>

  <circle cx="96" cy="182" r="22" fill="url(#fg)"/>
  <rect x="108" y="72" width="16" height="112" rx="8" fill="url(#fg)"/>
  <path d="M124 78c26 8 40 17 54 33 4 5 2 13-4 16-6 3-12 1-16-4-10-12-20-18-34-23z" fill="#8fe6ff"/>

  <circle cx="180" cy="86" r="8" fill="#9eeeff"/>
  <circle cx="200" cy="104" r="5" fill="#9eeeff" opacity="0.8"/>
</svg>
